<svg width="19" height="24" viewBox="0 0 19 24" fill="none" xmlns="http://www.w3.org/2000/svg">
<g clip-path="url(#clip0_3_2)">
<path d="M3.27734 0.714386V0.729585H3.65734L3.27734 0.714386Z" fill="#6C0C10"/>
<path d="M3.65771 0.714386V0.729585H3.72105L3.65771 0.714386Z" fill="#2B0405"/>
<path d="M3.11914 0.729584V0.744783H3.19831L3.11914 0.729584Z" fill="#680D0F"/>
<path d="M3.19842 0.736042C2.74625 0.79373 2.29375 0.935129 1.91592 1.18596C0.428746 2.17328 0.405728 4.29896 1.74318 5.40593C2.03049 5.64375 2.40785 5.81057 2.77092 5.90815C3.0883 5.99345 3.45616 6.02195 3.78425 5.98427C4.20173 5.93634 4.63819 5.81586 4.98759 5.58451C5.67403 5.12998 6.15517 4.44204 6.23573 3.63269C6.39747 2.00784 4.93018 0.515099 3.19842 0.736042Z" fill="url(#paint0_linear_3_2)"/>
<path d="M3.78418 0.729584V0.744783H3.87918L3.78418 0.729584Z" fill="#360607"/>
<path d="M3.02393 0.744781V0.759981H3.07143L3.02393 0.744781Z" fill="#340507"/>
<path d="M2.9292 0.759979V0.775179H2.9767L2.9292 0.759979Z" fill="#250405"/>
<path d="M3.99023 0.759979V0.775179H4.0694L3.99023 0.759979Z" fill="#280405"/>
<path d="M4.08496 0.775177V0.790376H4.13246L4.08496 0.775177Z" fill="#430709"/>
<path d="M2.80273 0.790375V0.805574H2.85023L2.80273 0.790375Z" fill="#4B080A"/>
<path d="M4.14844 0.790375V0.805574H4.19594L4.14844 0.790375Z" fill="#4F090B"/>
<path d="M2.73926 0.805573V0.820772H2.78676L2.73926 0.805573Z" fill="#360607"/>
<path d="M4.21143 0.805573V0.820772H4.25893L4.21143 0.805573Z" fill="#430709"/>
<path d="M2.69189 0.82077V0.83597H2.73939L2.69189 0.82077Z" fill="#51090B"/>
<path d="M4.2749 0.82077V0.83597H4.3224L4.2749 0.82077Z" fill="#280405"/>
<path d="M4.32227 0.835968V0.851168H4.36977L4.32227 0.835968Z" fill="#2B0405"/>
<path d="M4.37012 0.851166V0.866365H4.41762L4.37012 0.851166Z" fill="#2F0506"/>
<path d="M7.37842 0.957581V0.97278H11.5584L11.1784 0.957581H10.3234H7.37842Z" fill="#06FF2D"/>
<path d="M11.5581 0.957581V0.97278H11.6214L11.5581 0.957581Z" fill="#3FA750"/>
<path d="M13.3794 0.957581V0.97278H17.5594L17.1794 0.957581H16.3244H13.3794Z" fill="#06FF2D"/>
<path d="M17.5591 0.957581V0.97278H17.6224L17.5591 0.957581Z" fill="#113A17"/>
<path d="M7.33069 0.983848C6.89693 1.1037 6.99819 1.65048 6.99819 1.97594V4.52946C6.99819 4.8244 6.90205 5.30769 7.09024 5.56044C7.32096 5.87033 7.8564 5.76062 8.20152 5.76062H10.5607C10.9005 5.76062 11.3448 5.83259 11.669 5.72963C12.0962 5.59397 12.0015 5.08068 12.0015 4.74225V2.15834C12.0015 1.86895 12.1004 1.38399 11.8989 1.14642C11.6601 0.865041 11.1217 0.972777 10.7824 0.972777H8.42319H7.69485C7.57984 0.972777 7.44192 0.953113 7.33069 0.983848Z" fill="url(#paint1_linear_3_2)"/>
<path d="M11.6216 0.972778V0.987978H11.6691L11.6216 0.972778Z" fill="#032E0B"/>
<path d="M13.3317 0.984944C12.8936 1.12153 12.9992 1.65041 12.9992 1.99115V4.55986C12.9992 4.87481 12.9067 5.34443 13.1222 5.60933C13.3344 5.87026 13.9162 5.76062 14.2184 5.76062H16.5776C16.9075 5.76062 17.3577 5.83645 17.6701 5.72886C18.0947 5.58259 17.9867 5.08634 17.9867 4.74226V2.15834V1.53516C17.9867 1.40505 17.9964 1.26963 17.9126 1.15776C17.6924 0.863827 17.1438 0.972782 16.8151 0.972782H14.4084H13.6801C13.5712 0.972782 13.4362 0.952395 13.3317 0.984944Z" fill="url(#paint2_linear_3_2)"/>
<path d="M17.6226 0.972778V0.987978H17.6701L17.6226 0.972778Z" fill="#15471D"/>
<path d="M17.9868 1.32236V5.33502H18.0018V2.50792V1.68715L17.9868 1.32236Z" fill="#278537"/>
<path d="M6.12744 2.56873V2.61432H6.14244L6.12744 2.56873Z" fill="#2E0506"/>
<path d="M6.14355 2.62952V2.67512H6.15855L6.14355 2.62952Z" fill="#4B080A"/>
<path d="M0.807617 2.7511V2.7967H0.822617L0.807617 2.7511Z" fill="#3B0608"/>
<path d="M0.791504 2.81192V2.85752H0.806504L0.791504 2.81192Z" fill="#260405"/>
<path d="M6.19092 2.81192V2.85752H6.20592L6.19092 2.81192Z" fill="#3A0608"/>
<path d="M6.20654 2.88791V2.93351H6.22154L6.20654 2.88791Z" fill="#230304"/>
<path d="M0.775879 2.90311V2.9639H0.790879L0.775879 2.90311Z" fill="#7E0E11"/>
<path d="M6.22266 2.9791V3.03989H6.23766L6.22266 2.9791Z" fill="#470809"/>
<path d="M0.759766 2.99429V3.07029H0.774766L0.759766 2.99429Z" fill="#680C0E"/>
<path d="M6.23828 3.11591V3.51109H6.25328L6.23828 3.11591Z" fill="#8A1114"/>
<path d="M0.744141 3.1311V3.51109H0.759141L0.744141 3.1311Z" fill="#660D0F"/>
<path d="M0.744141 3.51108V3.58708H0.759141L0.744141 3.51108Z" fill="#0D0101"/>
<path d="M6.23828 3.51108V3.60227H6.25328L6.23828 3.51108Z" fill="#200304"/>
<path d="M0.759766 3.63269V3.72389H0.774766L0.759766 3.63269Z" fill="#370607"/>
<path d="M6.22266 3.66309V3.73908H6.23766L6.22266 3.66309Z" fill="#150202"/>
<path d="M6.20654 3.76947V3.83027H6.22154L6.20654 3.76947Z" fill="#050000"/>
<path d="M0.791504 3.83026V3.87586H0.806504L0.791504 3.83026Z" fill="#730E10"/>
<path d="M0.807617 3.92148V3.96708H0.822617L0.807617 3.92148Z" fill="#3F0708"/>
<path d="M6.1748 3.92148V3.98228H6.1898L6.1748 3.92148Z" fill="#010000"/>
<path d="M0.823242 3.98227V4.02787H0.838242L0.823242 3.98227Z" fill="#4F0A0C"/>
<path d="M0.839355 4.04306V4.08866H0.854355L0.839355 4.04306Z" fill="#3F0708"/>
<path d="M6.14355 4.04306V4.08866H6.15855L6.14355 4.04306Z" fill="#51090B"/>
<path d="M6.12744 4.10385V4.14945H6.14244L6.12744 4.10385Z" fill="#350607"/>
<path d="M0.870605 4.14948V4.19507H0.885605L0.870605 4.14948Z" fill="#2D0506"/>
<path d="M6.11182 4.14948V4.19507H6.12682L6.11182 4.14948Z" fill="#3F0708"/>
<path d="M6.0957 4.19507V4.24067H6.1107L6.0957 4.19507Z" fill="#3B0608"/>
<path d="M6.08008 4.24066V4.28626H6.09508L6.08008 4.24066Z" fill="#390607"/>
<path d="M11.9858 5.33502V5.39582H12.0008L11.9858 5.33502Z" fill="#1A852B"/>
<path d="M12.999 5.33502V5.39582H13.014L12.999 5.33502Z" fill="#184E21"/>
<path d="M17.9868 5.33502V5.39582H18.0018L17.9868 5.33502Z" fill="#3FA750"/>
<path d="M6.99854 5.35022V5.39582H7.01354L6.99854 5.35022Z" fill="#0D2D12"/>
<path d="M13.0151 5.41101V5.45661H13.0301L13.0151 5.41101Z" fill="#0C2910"/>
<path d="M11.6377 5.73019V5.74539H11.6852L11.6377 5.73019Z" fill="#0A250F"/>
<path d="M11.5742 5.74542V5.76062H11.6217L11.5742 5.74542Z" fill="#0F3415"/>
<path d="M17.5752 5.74542V5.76062H17.6227L17.5752 5.74542Z" fill="#0E3314"/>
<path d="M4.41748 5.83661V5.85181H4.46498L4.41748 5.83661Z" fill="#3A0608"/>
<path d="M4.32227 5.867V5.8822H4.36977L4.32227 5.867Z" fill="#410709"/>
<path d="M4.2749 5.8822V5.8974H4.3224L4.2749 5.8822Z" fill="#3D0708"/>
<path d="M4.08496 5.9278V5.94299H4.14829L4.08496 5.9278Z" fill="#580A0C"/>
<path d="M2.9292 5.94299V5.95819H2.9767L2.9292 5.94299Z" fill="#3B0608"/>
<path d="M4.00586 5.94299V5.95819H4.06919L4.00586 5.94299Z" fill="#630B0F"/>
<path d="M3.0083 5.95819V5.97339H3.0558L3.0083 5.95819Z" fill="#260405"/>
<path d="M3.91064 5.95819V5.97339H3.95814L3.91064 5.95819Z" fill="#730E10"/>
<path d="M3.10352 5.97339V5.98859H3.18268L3.10352 5.97339Z" fill="#640B0E"/>
<path d="M3.7998 5.97339V5.98859H3.8948L3.7998 5.97339Z" fill="#180203"/>
<path d="M3.24561 5.98859V6.00379H3.70477L3.24561 5.98859Z" fill="#961216"/>
<path d="M3.70508 5.98859V6.00379H3.75258L3.70508 5.98859Z" fill="#130102"/>
<path d="M1.37744 6.71817V6.73337H5.55744L5.17744 6.71817H4.32244H1.37744Z" fill="#06FF2D"/>
<path d="M5.55762 6.71817V6.73337H5.62095L5.55762 6.71817Z" fill="#14431C"/>
<path d="M7.37842 6.71817V6.73337H11.5584L11.1784 6.71817H10.3234H7.37842Z" fill="#06FF2D"/>
<path d="M11.5581 6.71817V6.73337H11.6214L11.5581 6.71817Z" fill="#14411A"/>
<path d="M1.32979 6.74445C0.903536 6.86225 1.01313 7.40075 1.01313 7.72135V10.3205V10.9588C1.01313 11.0813 1.00714 11.2167 1.08752 11.321C1.3241 11.6281 1.85335 11.5212 2.20063 11.5212H4.54396C4.89101 11.5212 5.3355 11.5917 5.66813 11.4901C6.0929 11.3603 6.00063 10.8512 6.00063 10.5181V7.91894C6.00063 7.64257 6.10088 7.14629 5.90936 6.91876C5.66235 6.62527 5.13377 6.73338 4.78146 6.73338H2.42229H1.69396C1.57895 6.73338 1.44102 6.71372 1.32979 6.74445Z" fill="url(#paint3_linear_3_2)"/>
<path d="M7.33105 6.74555C6.89674 6.88095 6.99855 7.39834 6.99855 7.73656V10.2901C6.99855 10.5842 6.90274 11.0687 7.0906 11.3211C7.31943 11.6284 7.84437 11.5212 8.18605 11.5212H10.561C10.8954 11.5212 11.3528 11.5985 11.6694 11.4895C12.0948 11.343 12.0019 10.848 12.0019 10.5029V7.91895C12.0019 7.62961 12.1008 7.14454 11.8992 6.90703C11.6617 6.62721 11.1355 6.73339 10.7985 6.73339H8.40772H7.67938C7.57051 6.73339 7.43545 6.71301 7.33105 6.74555Z" fill="url(#paint4_linear_3_2)"/>
<path d="M0.997559 7.08298V11.1108H1.01256V8.26854V7.44777L0.997559 7.08298Z" fill="#278537"/>
<path d="M5.98486 11.0956V11.1564H5.99986L5.98486 11.0956Z" fill="#164C20"/>
<path d="M6.99854 11.0956V11.1564H7.01354L6.99854 11.0956Z" fill="#14451C"/>
<path d="M11.9858 11.0956V11.1564H12.0008L11.9858 11.0956Z" fill="#13441B"/>
<path d="M0.997559 11.1108V11.1564H1.01256L0.997559 11.1108Z" fill="#0A240E"/>
<path d="M1.01318 11.1564V11.202H1.02818L1.01318 11.1564Z" fill="#174C1E"/>
<path d="M5.96924 11.1716V11.2172H5.98424L5.96924 11.1716Z" fill="#0A250F"/>
<path d="M5.55762 11.506V11.5212H5.62095L5.55762 11.506Z" fill="#16491E"/>
<path d="M11.5742 11.506V11.5212H11.6217L11.5742 11.506Z" fill="#0D2E12"/>
<path d="M1.37768 12.4872C0.915853 12.5959 1.01351 13.1073 1.01351 13.4515V16.0659V16.7194C1.01351 16.8419 1.00752 16.9774 1.0879 17.0816C1.31665 17.3785 1.86237 17.2666 2.20101 17.2666H4.56018H5.28851C5.40428 17.2666 5.54047 17.2852 5.65268 17.2546C6.0969 17.1336 6.00101 16.6029 6.00101 16.2634V13.6795C6.00101 13.3757 6.09655 12.9033 5.89512 12.6466C5.67996 12.3723 5.09075 12.4788 4.78184 12.4788H2.47018C2.13323 12.4788 1.70456 12.4102 1.37768 12.4872Z" fill="url(#paint5_linear_3_2)"/>
<path d="M5.55762 12.4788V12.494H5.62095L5.55762 12.4788Z" fill="#16491F"/>
<path d="M7.37855 12.4872C6.91284 12.5968 6.99855 13.1035 6.99855 13.4515V16.0507C6.99855 16.3448 6.90274 16.8293 7.0906 17.0816C7.3126 17.3798 7.86838 17.2666 8.20188 17.2666H10.561H11.2894C11.4052 17.2666 11.5413 17.2852 11.6535 17.2546C12.0931 17.1348 12.0019 16.6149 12.0019 16.2786V13.7099C12.0019 13.4142 12.0997 12.9302 11.9099 12.6807C11.6778 12.3757 11.1413 12.4788 10.7985 12.4788H8.47105C8.1341 12.4788 7.70543 12.4102 7.37855 12.4872Z" fill="url(#paint6_linear_3_2)"/>
<path d="M11.5581 12.4788V12.494H11.6214L11.5581 12.4788Z" fill="#16491E"/>
<path d="M13.3791 12.4884C12.9107 12.6107 12.9991 13.0875 12.9991 13.4515V16.0507C12.9991 16.3394 12.9008 16.8365 13.0904 17.0816C13.3196 17.3782 13.8638 17.2666 14.2024 17.2666H16.5616H17.2741C17.3951 17.2666 17.5368 17.2859 17.6541 17.2546C18.0935 17.1379 17.9866 16.6118 17.9866 16.2786V13.6947V13.0564C17.9866 12.9249 17.9955 12.7934 17.9104 12.6807C17.6798 12.3754 17.1408 12.4788 16.7991 12.4788H14.4558H13.7433C13.6283 12.4788 13.4907 12.4593 13.3791 12.4884Z" fill="url(#paint7_linear_3_2)"/>
<path d="M17.5591 12.4788V12.494H17.6224L17.5591 12.4788Z" fill="#14471D"/>
<path d="M5.63672 12.494V12.5092H5.68422L5.63672 12.494Z" fill="#0A240E"/>
<path d="M0.997559 12.8436V16.8714H1.01339V14.0291V13.2084L0.997559 12.8436ZM17.9867 12.8436V16.8562H18.0026V14.0291V13.2084L17.9867 12.8436Z" fill="#278537"/>
<path d="M5.98486 16.8562V16.917H5.99986L5.98486 16.8562Z" fill="#154C1F"/>
<path d="M6.99854 16.8562V16.917H7.01354L6.99854 16.8562Z" fill="#1A852B"/>
<path d="M11.9858 16.8562V16.917H12.0008L11.9858 16.8562Z" fill="#13421B"/>
<path d="M12.999 16.8562V16.917H13.014L12.999 16.8562Z" fill="#174C1F"/>
<path d="M17.9868 16.8562V16.917H18.0018L17.9868 16.8562Z" fill="#113A17"/>
<path d="M0.997559 16.8714V16.917H1.01256L0.997559 16.8714Z" fill="#0A220E"/>
<path d="M1.01318 16.9171V16.9627H1.02818L1.01318 16.9171Z" fill="#16491F"/>
<path d="M17.9707 16.9171V16.9627H17.9857L17.9707 16.9171Z" fill="#15471D"/>
<path d="M5.96924 16.9323V16.9778H5.98424L5.96924 16.9323Z" fill="#0A220E"/>
<path d="M13.0151 16.9323V16.9778H13.0301L13.0151 16.9323Z" fill="#0A250F"/>
<path d="M1.37744 17.2666V17.2818H5.57327L5.19327 17.2666H4.33827H1.37744Z" fill="#06FF2D"/>
<path d="M5.57324 17.2666V17.2818H5.62074L5.57324 17.2666Z" fill="#0C2910"/>
<path d="M7.37842 17.2666V17.2818H11.5584L11.1784 17.2666H10.3234H7.37842Z" fill="#06FF2D"/>
<path d="M11.5581 17.2666V17.2818H11.6214L11.5581 17.2666Z" fill="#12401B"/>
<path d="M13.3794 17.2666V17.2818H17.5594L17.1794 17.2666H16.3244H13.3794Z" fill="#06FF2D"/>
<path d="M17.5591 17.2666V17.2818H17.6224L17.5591 17.2666Z" fill="#123F19"/>
<path d="M1.37745 18.249C0.916864 18.3692 1.01328 18.8588 1.01328 19.2122V21.8265V22.4649C1.01328 22.5956 1.00412 22.7307 1.08762 22.8435C1.30703 23.1397 1.87107 23.0272 2.20078 23.0272H4.57578H5.28828C5.41119 23.0272 5.54956 23.0441 5.66828 23.0087C6.09249 22.8819 6.00078 22.3696 6.00078 22.0393V19.4402V18.817C6.00078 18.6899 6.00733 18.5595 5.91989 18.454C5.6602 18.1404 5.16939 18.2394 4.79745 18.2394H2.45411H1.74161C1.6266 18.2394 1.48904 18.2199 1.37745 18.249Z" fill="url(#paint8_linear_3_2)"/>
<path d="M7.37855 18.2485C6.91289 18.3558 6.99855 18.8645 6.99855 19.2122V21.8113C6.99855 22.1054 6.90274 22.5899 7.0906 22.8423C7.3127 23.1406 7.86766 23.0272 8.20188 23.0272H10.5452C10.8869 23.0272 11.3231 23.0967 11.6535 23.0132C12.0988 22.9006 12.0019 22.3592 12.0019 22.0241V19.4402C12.0019 19.133 12.0967 18.666 11.8936 18.4072C11.6773 18.1316 11.094 18.2394 10.7827 18.2394H8.47105C8.13252 18.2394 7.70741 18.1727 7.37855 18.2485Z" fill="url(#paint9_linear_3_2)"/>
<path d="M5.63672 18.2546V18.2698H5.68422L5.63672 18.2546Z" fill="#0C2A11"/>
<path d="M11.6377 18.2546V18.2698H11.6852L11.6377 18.2546Z" fill="#0B270F"/>
<path d="M0.997559 18.6042V22.6169H1.01256V19.7897V18.969L0.997559 18.6042Z" fill="url(#paint10_linear_3_2)"/>
<path d="M0.997559 22.6169V22.6776H1.01256L0.997559 22.6169Z" fill="#113B18"/>
<path d="M5.98486 22.6169V22.6776H5.99986L5.98486 22.6169Z" fill="#032E0B"/>
<path d="M6.99854 22.6169V22.6776H7.01354L6.99854 22.6169Z" fill="#13441B"/>
<path d="M11.9858 22.6169V22.6776H12.0008L11.9858 22.6169Z" fill="#14411A"/>
<path d="M5.62061 23.012V23.0272H5.66811L5.62061 23.012Z" fill="#032E0B"/>
<path d="M11.6216 23.012V23.0272H11.6691L11.6216 23.012Z" fill="#16491E"/>
<path d="M1.37744 23.0272V23.0424H1.44077L1.37744 23.0272Z" fill="#195121"/>
<path d="M1.44092 23.0272V23.0424H5.55759L5.17759 23.0272H4.33842H1.44092Z" fill="#06FF2D"/>
<path d="M5.55762 23.0272V23.0424H5.62095L5.55762 23.0272Z" fill="#3FA750"/>
<path d="M7.37842 23.0272V23.0424H11.5584L11.1784 23.0272H10.3234H7.37842Z" fill="#06FF2D"/>
<path d="M11.5581 23.0272V23.0424H11.6214L11.5581 23.0272Z" fill="#113A17"/>
</g>
<defs>
<linearGradient id="paint0_linear_3_2" x1="3.50849" y1="0.714233" x2="3.50849" y2="6.00058" gradientUnits="userSpaceOnUse">
<stop offset="0.185" stop-color="#CD191E"/>
<stop offset="0.675" stop-color="#DB3C41"/>
<stop offset="1" stop-color="#670D0F"/>
</linearGradient>
<linearGradient id="paint1_linear_3_2" x1="9.49971" y1="0.952515" x2="9.49971" y2="5.78508" gradientUnits="userSpaceOnUse">
<stop offset="0.27" stop-color="#0DB62A"/>
<stop offset="0.77" stop-color="#52C766"/>
<stop offset="1" stop-color="#1D872F"/>
</linearGradient>
<linearGradient id="paint2_linear_3_2" x1="15.4893" y1="0.953033" x2="15.4893" y2="5.78657" gradientUnits="userSpaceOnUse">
<stop offset="0.27" stop-color="#0DB62A"/>
<stop offset="0.77" stop-color="#52C766"/>
<stop offset="1" stop-color="#1D872F"/>
</linearGradient>
<linearGradient id="paint3_linear_3_2" x1="3.51367" y1="6.71393" x2="3.51367" y2="11.545" gradientUnits="userSpaceOnUse">
<stop offset="0.27" stop-color="#0DB62A"/>
<stop offset="0.77" stop-color="#52C766"/>
<stop offset="1" stop-color="#1D872F"/>
</linearGradient>
<linearGradient id="paint4_linear_3_2" x1="9.50014" y1="6.71362" x2="9.50014" y2="11.5478" gradientUnits="userSpaceOnUse">
<stop offset="0.27" stop-color="#0DB62A"/>
<stop offset="0.77" stop-color="#52C766"/>
<stop offset="1" stop-color="#1D872F"/>
</linearGradient>
<linearGradient id="paint5_linear_3_2" x1="3.51427" y1="12.4507" x2="3.51427" y2="17.2873" gradientUnits="userSpaceOnUse">
<stop offset="0.27" stop-color="#0DB62A"/>
<stop offset="0.77" stop-color="#52C766"/>
<stop offset="1" stop-color="#1D872F"/>
</linearGradient>
<linearGradient id="paint6_linear_3_2" x1="9.5006" y1="12.4507" x2="9.5006" y2="17.2877" gradientUnits="userSpaceOnUse">
<stop offset="0.27" stop-color="#0DB62A"/>
<stop offset="0.77" stop-color="#52C766"/>
<stop offset="1" stop-color="#1D872F"/>
</linearGradient>
<linearGradient id="paint7_linear_3_2" x1="15.4858" y1="12.4619" x2="15.4858" y2="17.2872" gradientUnits="userSpaceOnUse">
<stop offset="0.27" stop-color="#0DB62A"/>
<stop offset="0.77" stop-color="#52C766"/>
<stop offset="1" stop-color="#1D872F"/>
</linearGradient>
<linearGradient id="paint8_linear_3_2" x1="3.50701" y1="18.2246" x2="3.50701" y2="23.0482" gradientUnits="userSpaceOnUse">
<stop offset="0.27" stop-color="#0DB62A"/>
<stop offset="0.77" stop-color="#52C766"/>
<stop offset="1" stop-color="#1D872F"/>
</linearGradient>
<linearGradient id="paint9_linear_3_2" x1="9.49906" y1="18.2123" x2="9.49906" y2="23.0543" gradientUnits="userSpaceOnUse">
<stop offset="0.27" stop-color="#0DB62A"/>
<stop offset="0.77" stop-color="#52C766"/>
<stop offset="1" stop-color="#1D872F"/>
</linearGradient>
<linearGradient id="paint10_linear_3_2" x1="1.00506" y1="18.6042" x2="1.00506" y2="22.6169" gradientUnits="userSpaceOnUse">
<stop offset="0.27" stop-color="#0DB62A"/>
<stop offset="0.77" stop-color="#52C766"/>
<stop offset="1" stop-color="#1D872F"/>
</linearGradient>
<clipPath id="clip0_3_2">
<rect width="19" height="24" fill="white"/>
</clipPath>
</defs>
</svg>
