<svg width="177" height="24" viewBox="0 0 177 24" fill="none" xmlns="http://www.w3.org/2000/svg">
<g clip-path="url(#clip0_2_665)">
<path d="M27.8672 14.3125V11.4902H30.1328C30.5885 11.4902 30.9824 11.4023 31.3145 11.2266C31.653 11.0508 31.9134 10.8099 32.0957 10.5039C32.278 10.1914 32.3691 9.83984 32.3691 9.44922C32.3691 8.83724 32.1576 8.35221 31.7344 7.99414C31.3112 7.63607 30.7383 7.45703 30.0156 7.45703H27.8672V4.60547H30.2109C31.3112 4.60547 32.2552 4.80078 33.043 5.19141C33.8372 5.58203 34.446 6.13216 34.8691 6.8418C35.2923 7.55143 35.5039 8.38802 35.5039 9.35156C35.5039 10.3346 35.2858 11.2005 34.8496 11.9492C34.4134 12.6914 33.8047 13.2708 33.0234 13.6875C32.2422 14.1042 31.334 14.3125 30.2988 14.3125H27.8672ZM25.3086 19V4.60547H28.5117V19H25.3086ZM37.1297 19V8.49219H40.1277V9.9668H40.4305L39.7273 10.709C39.8836 10.3835 40.1212 10.0384 40.4402 9.67383C40.7592 9.30924 41.1596 8.99674 41.6414 8.73633C42.1297 8.4694 42.7026 8.33594 43.3602 8.33594C43.6336 8.33594 43.8745 8.35872 44.0828 8.4043C44.2977 8.44987 44.4539 8.4987 44.5516 8.55078L43.3113 11.5C43.2462 11.4674 43.129 11.4316 42.9598 11.3926C42.797 11.3535 42.6147 11.334 42.4129 11.334C42.1655 11.334 41.9116 11.3796 41.6512 11.4707C41.3973 11.5553 41.1596 11.6921 40.9383 11.8809C40.7234 12.0697 40.5477 12.3073 40.4109 12.5938C40.2807 12.8737 40.2156 13.209 40.2156 13.5996V19H37.1297ZM50.1422 19.1562C49.1331 19.1562 48.2118 18.9251 47.3785 18.4629C46.5517 18.0007 45.8909 17.3626 45.3961 16.5488C44.9078 15.735 44.6637 14.7975 44.6637 13.7363C44.6637 12.6751 44.9078 11.7376 45.3961 10.9238C45.8909 10.11 46.5517 9.47526 47.3785 9.01953C48.2118 8.5638 49.1331 8.33594 50.1422 8.33594C51.1708 8.33594 52.0986 8.5638 52.9254 9.01953C53.7522 9.47526 54.4065 10.11 54.8883 10.9238C55.3766 11.7376 55.6207 12.6751 55.6207 13.7363C55.6207 14.7975 55.3766 15.735 54.8883 16.5488C54.4065 17.3626 53.749 18.0007 52.9156 18.4629C52.0888 18.9251 51.1643 19.1562 50.1422 19.1562ZM50.1422 16.5195C50.624 16.5195 51.0569 16.4023 51.441 16.168C51.8251 15.9336 52.1279 15.6081 52.3492 15.1914C52.5706 14.7747 52.6812 14.2897 52.6812 13.7363C52.6812 13.2025 52.5738 12.7272 52.359 12.3105C52.1441 11.8939 51.8479 11.5684 51.4703 11.334C51.0927 11.0931 50.6565 10.9727 50.1617 10.9727C49.6734 10.9727 49.234 11.0898 48.8434 11.3242C48.4592 11.5521 48.1565 11.8743 47.9352 12.291C47.7138 12.7077 47.6031 13.1895 47.6031 13.7363C47.6031 14.2897 47.7138 14.7747 47.9352 15.1914C48.163 15.6081 48.469 15.9336 48.8531 16.168C49.2372 16.4023 49.6669 16.5195 50.1422 16.5195ZM56.7777 23.3164C56.5564 23.3164 56.3187 23.3034 56.0648 23.2773C55.8174 23.2513 55.5863 23.2155 55.3715 23.1699V20.4062C55.5212 20.4648 55.684 20.5072 55.8598 20.5332C56.029 20.5592 56.1788 20.5723 56.309 20.5723C56.7322 20.5723 57.0316 20.4714 57.2074 20.2695C57.3897 20.0677 57.4809 19.8073 57.4809 19.4883V8.49219H60.5668V19.3418C60.5668 20.1035 60.4301 20.7839 60.1566 21.3828C59.8897 21.9818 59.473 22.4538 58.9066 22.7988C58.3467 23.1439 57.6371 23.3164 56.7777 23.3164ZM59.0141 7.29102C58.4867 7.29102 58.0408 7.10872 57.6762 6.74414C57.3116 6.37956 57.1293 5.93685 57.1293 5.41602C57.1293 4.88216 57.3116 4.4362 57.6762 4.07812C58.0408 3.71354 58.4867 3.53125 59.0141 3.53125C59.5414 3.53125 59.9841 3.71354 60.3422 4.07812C60.7068 4.4362 60.8891 4.88216 60.8891 5.41602C60.8891 5.93685 60.7068 6.37956 60.3422 6.74414C59.9841 7.10872 59.5414 7.29102 59.0141 7.29102ZM67.8566 19.1562C66.7238 19.1562 65.7408 18.9284 64.9074 18.4727C64.0741 18.0104 63.4296 17.3757 62.9738 16.5684C62.5181 15.7546 62.2902 14.8236 62.2902 13.7754C62.2902 12.6686 62.5279 11.7116 63.0031 10.9043C63.4784 10.0905 64.1099 9.46224 64.8977 9.01953C65.6854 8.57031 66.548 8.3457 67.4855 8.3457C68.3905 8.3457 69.2076 8.55404 69.9367 8.9707C70.6724 9.38737 71.2551 9.96354 71.6848 10.6992C72.1145 11.4349 72.3293 12.291 72.3293 13.2676C72.3293 13.528 72.313 13.7852 72.2805 14.0391C72.2544 14.293 72.2186 14.5273 72.173 14.7422H64.6535V12.8086H69.4875C69.4875 12.3854 69.3996 12.0208 69.2238 11.7148C69.048 11.4023 68.8072 11.1647 68.5012 11.002C68.1952 10.8392 67.8436 10.7578 67.4465 10.7578C66.9191 10.7578 66.4699 10.888 66.0988 11.1484C65.7277 11.4023 65.4413 11.7507 65.2395 12.1934C65.0441 12.6361 64.9465 13.1309 64.9465 13.6777C64.9465 14.2832 65.0669 14.8138 65.3078 15.2695C65.5487 15.7253 65.884 16.0801 66.3137 16.334C66.7499 16.5814 67.2512 16.7051 67.8176 16.7051C68.1366 16.7051 68.4589 16.6693 68.7844 16.5977C69.1099 16.526 69.4094 16.4349 69.6828 16.3242C69.9562 16.207 70.1743 16.0833 70.3371 15.9531L71.2941 18.2578C70.897 18.5182 70.3957 18.7331 69.7902 18.9023C69.1913 19.0716 68.5467 19.1562 67.8566 19.1562ZM78.7598 19.1562C77.4642 19.1562 76.5007 18.7982 75.8691 18.082C75.2376 17.3594 74.9219 16.4349 74.9219 15.3086V5.46484H78.0078V15.2305C78.0078 15.6797 78.1152 16.0052 78.3301 16.207C78.5514 16.4023 78.8216 16.5 79.1406 16.5C79.2904 16.5 79.4368 16.4805 79.5801 16.4414C79.7233 16.4023 79.8503 16.3535 79.9609 16.2949L80.957 18.7266C80.6641 18.8698 80.3223 18.9772 79.9316 19.0488C79.5475 19.1204 79.1569 19.1562 78.7598 19.1562ZM73.1641 11.0508V8.49219H80.4395V11.0508H73.1641ZM86.9969 19.1562C85.9878 19.1562 85.0665 18.9251 84.2332 18.4629C83.4064 18.0007 82.7456 17.3626 82.2508 16.5488C81.7625 15.735 81.5184 14.7975 81.5184 13.7363C81.5184 12.6751 81.7625 11.7376 82.2508 10.9238C82.7456 10.11 83.4064 9.47526 84.2332 9.01953C85.0665 8.5638 85.9878 8.33594 86.9969 8.33594C88.0255 8.33594 88.9533 8.5638 89.7801 9.01953C90.6069 9.47526 91.2612 10.11 91.743 10.9238C92.2313 11.7376 92.4754 12.6751 92.4754 13.7363C92.4754 14.7975 92.2313 15.735 91.743 16.5488C91.2612 17.3626 90.6036 18.0007 89.7703 18.4629C88.9435 18.9251 88.019 19.1562 86.9969 19.1562ZM86.9969 16.5195C87.4786 16.5195 87.9116 16.4023 88.2957 16.168C88.6798 15.9336 88.9826 15.6081 89.2039 15.1914C89.4253 14.7747 89.5359 14.2897 89.5359 13.7363C89.5359 13.2025 89.4285 12.7272 89.2137 12.3105C88.9988 11.8939 88.7026 11.5684 88.325 11.334C87.9474 11.0931 87.5112 10.9727 87.0164 10.9727C86.5281 10.9727 86.0887 11.0898 85.698 11.3242C85.3139 11.5521 85.0112 11.8743 84.7898 12.291C84.5685 12.7077 84.4578 13.1895 84.4578 13.7363C84.4578 14.2897 84.5685 14.7747 84.7898 15.1914C85.0177 15.6081 85.3237 15.9336 85.7078 16.168C86.0919 16.4023 86.5216 16.5195 86.9969 16.5195Z" fill="#09090B"/>
<path d="M111.489 19L110.092 17.2129L108.901 16.3047L106.03 12.9844H109.037L110.864 15.2695L112.241 16.3828L114.33 19H111.489ZM106.86 19.1562C105.831 19.1562 104.871 18.9707 103.979 18.5996C103.093 18.2285 102.315 17.7077 101.645 17.0371C100.974 16.3665 100.45 15.5853 100.073 14.6934C99.7016 13.8014 99.516 12.8346 99.516 11.793C99.516 10.7578 99.7016 9.79427 100.073 8.90234C100.45 8.01042 100.971 7.23242 101.635 6.56836C102.306 5.9043 103.084 5.38672 103.969 5.01562C104.861 4.63802 105.818 4.44922 106.84 4.44922C107.882 4.44922 108.845 4.63802 109.731 5.01562C110.623 5.38672 111.401 5.9043 112.065 6.56836C112.735 7.23242 113.253 8.01042 113.618 8.90234C113.989 9.79427 114.174 10.7611 114.174 11.8027C114.174 12.8379 113.989 13.8014 113.618 14.6934C113.253 15.5853 112.735 16.3665 112.065 17.0371C111.401 17.7077 110.626 18.2285 109.741 18.5996C108.855 18.9707 107.895 19.1562 106.86 19.1562ZM106.83 16.6074C107.482 16.6074 108.08 16.4837 108.627 16.2363C109.181 15.9889 109.662 15.6471 110.073 15.2109C110.489 14.7747 110.812 14.2669 111.039 13.6875C111.267 13.1016 111.381 12.4701 111.381 11.793C111.381 11.1029 111.264 10.4681 111.03 9.88867C110.802 9.30273 110.48 8.79492 110.063 8.36523C109.653 7.93555 109.171 7.60026 108.618 7.35938C108.064 7.11849 107.468 6.99805 106.83 6.99805C106.199 6.99805 105.61 7.11849 105.063 7.35938C104.516 7.60026 104.037 7.93555 103.627 8.36523C103.217 8.79492 102.895 9.30273 102.661 9.88867C102.426 10.4681 102.309 11.1029 102.309 11.793C102.309 12.4701 102.423 13.1016 102.651 13.6875C102.885 14.2734 103.204 14.7845 103.608 15.2207C104.018 15.6569 104.496 15.9987 105.043 16.2461C105.597 16.487 106.192 16.6074 106.83 16.6074ZM120.497 19.1562C119.762 19.1562 119.098 19 118.505 18.6875C117.919 18.375 117.454 17.916 117.109 17.3105C116.764 16.7051 116.591 15.9629 116.591 15.084V8.54102H119.286V14.7617C119.286 15.4453 119.469 15.9629 119.833 16.3145C120.198 16.6595 120.64 16.832 121.161 16.832C121.552 16.832 121.894 16.7474 122.187 16.5781C122.486 16.4023 122.721 16.1582 122.89 15.8457C123.059 15.5332 123.144 15.1719 123.144 14.7617V8.54102H125.839V15.5332C125.839 15.9303 125.894 16.2233 126.005 16.4121C126.116 16.5944 126.34 16.7474 126.679 16.8711L125.712 19.1562C125.022 18.9479 124.504 18.6777 124.159 18.3457C123.814 18.0137 123.639 17.6133 123.632 17.1445L124.325 17.75H123.017L124.306 16.9492C123.922 17.5742 123.407 18.0983 122.763 18.5215C122.125 18.9447 121.37 19.1562 120.497 19.1562ZM128.568 19V8.54102H131.264V19H128.568ZM129.896 7.66211L128.734 6.65625L131.498 3.04297L133.1 4.57617L129.896 7.66211ZM133.866 19V8.54102H136.454V9.84961H136.835L135.927 10.9336C136.246 10.1068 136.695 9.47526 137.274 9.03906C137.86 8.60286 138.547 8.38477 139.335 8.38477C140.038 8.38477 140.63 8.55729 141.112 8.90234C141.594 9.24089 141.949 9.71615 142.177 10.3281L141.659 9.84961H142.352L141.698 10.3281C142.05 9.67708 142.538 9.19206 143.163 8.87305C143.794 8.54753 144.478 8.38477 145.214 8.38477C145.871 8.38477 146.425 8.4987 146.874 8.72656C147.323 8.95443 147.681 9.26042 147.948 9.64453C148.215 10.0221 148.407 10.4421 148.524 10.9043C148.641 11.3665 148.7 11.8288 148.7 12.291V19H145.995V12.6621C145.995 12.0111 145.852 11.5163 145.565 11.1777C145.285 10.8327 144.891 10.6602 144.384 10.6602C144.058 10.6602 143.762 10.735 143.495 10.8848C143.228 11.0345 143.016 11.2591 142.86 11.5586C142.704 11.8516 142.626 12.2194 142.626 12.6621V19H139.93V12.6621C139.93 12.0111 139.787 11.5163 139.501 11.1777C139.214 10.8327 138.817 10.6602 138.309 10.6602C137.821 10.6602 137.408 10.8294 137.069 11.168C136.731 11.5065 136.561 12.0143 136.561 12.6914V19H133.866ZM151.058 19V8.54102H153.754V19H151.058ZM152.396 7.21289C151.921 7.21289 151.517 7.04688 151.185 6.71484C150.853 6.3763 150.687 5.9694 150.687 5.49414C150.687 5.01237 150.853 4.60872 151.185 4.2832C151.517 3.95117 151.921 3.78516 152.396 3.78516C152.878 3.78516 153.282 3.95117 153.607 4.2832C153.939 4.60872 154.105 5.01237 154.105 5.49414C154.105 5.9694 153.939 6.3763 153.607 6.71484C153.282 7.04688 152.878 7.21289 152.396 7.21289ZM161.161 19.1172C160.392 19.1172 159.673 18.9805 159.002 18.707C158.338 18.4336 157.752 18.0527 157.245 17.5645C156.743 17.0762 156.349 16.5065 156.063 15.8555C155.776 15.1979 155.633 14.485 155.633 13.7168C155.633 12.9551 155.773 12.252 156.053 11.6074C156.34 10.9564 156.733 10.39 157.235 9.9082C157.736 9.41992 158.312 9.04232 158.963 8.77539C159.621 8.50846 160.321 8.375 161.063 8.375C161.662 8.375 162.245 8.46289 162.811 8.63867C163.377 8.80794 163.879 9.04557 164.315 9.35156L163.319 11.5391C163.136 11.3763 162.928 11.2331 162.694 11.1094C162.459 10.9857 162.209 10.8913 161.942 10.8262C161.681 10.7611 161.411 10.7285 161.131 10.7285C160.558 10.7285 160.054 10.862 159.618 11.1289C159.181 11.3958 158.843 11.7572 158.602 12.2129C158.361 12.6621 158.241 13.1667 158.241 13.7266C158.241 14.293 158.364 14.8073 158.612 15.2695C158.859 15.7253 159.201 16.0898 159.637 16.3633C160.073 16.6302 160.571 16.7637 161.131 16.7637C161.587 16.7637 162.02 16.6855 162.43 16.5293C162.84 16.3665 163.149 16.1842 163.358 15.9824L164.334 18.2188C163.957 18.4661 163.491 18.6777 162.938 18.8535C162.391 19.0293 161.799 19.1172 161.161 19.1172ZM168.948 19.1562C168.245 19.1562 167.627 19.0163 167.093 18.7363C166.559 18.4499 166.142 18.0658 165.843 17.584C165.543 17.1022 165.394 16.5586 165.394 15.9531C165.394 15.3281 165.563 14.778 165.902 14.3027C166.247 13.821 166.758 13.4466 167.435 13.1797C168.112 12.9062 168.948 12.7695 169.945 12.7695H172.269V14.5469H169.964C169.339 14.5469 168.851 14.651 168.499 14.8594C168.148 15.0677 167.972 15.3932 167.972 15.8359C167.972 16.1029 168.037 16.3307 168.167 16.5195C168.304 16.7018 168.493 16.8418 168.734 16.9395C168.974 17.0371 169.248 17.0859 169.554 17.0859C169.834 17.0859 170.159 17.0241 170.53 16.9004C170.902 16.7767 171.224 16.5781 171.497 16.3047C171.777 16.0247 171.917 15.6602 171.917 15.2109V14.1367L171.741 13.6094V12.2617C171.741 12.0339 171.709 11.8223 171.644 11.627C171.579 11.4316 171.471 11.2591 171.321 11.1094C171.178 10.9596 170.986 10.8457 170.745 10.7676C170.511 10.6829 170.224 10.6406 169.886 10.6406C169.554 10.6406 169.206 10.6764 168.841 10.748C168.476 10.8197 168.128 10.9173 167.796 11.041C167.471 11.1582 167.191 11.2917 166.956 11.4414L166.077 9.35156C166.344 9.19531 166.693 9.04557 167.122 8.90234C167.552 8.7526 168.034 8.63216 168.568 8.54102C169.108 8.44336 169.671 8.39453 170.257 8.39453C171.214 8.39453 171.966 8.52474 172.513 8.78516C173.06 9.04557 173.46 9.3776 173.714 9.78125C173.974 10.1784 174.14 10.5951 174.212 11.0312C174.284 11.4674 174.32 11.8646 174.32 12.2227V15.4844C174.32 15.8815 174.359 16.181 174.437 16.3828C174.521 16.5781 174.684 16.7148 174.925 16.793L175.159 16.8711L174.183 19.1562L173.87 19.0391C173.297 18.8242 172.881 18.5736 172.62 18.2871C172.36 17.9941 172.21 17.7044 172.171 17.418L172.679 17.75H171.82L172.405 17.4766C172.184 17.9193 171.754 18.3099 171.116 18.6484C170.485 18.987 169.762 19.1562 168.948 19.1562Z" fill="#52525C"/>
<g clip-path="url(#clip1_2_665)">
<path d="M3.27734 0.714371V0.72957H3.65734L3.27734 0.714371Z" fill="#6C0C10"/>
<path d="M3.65771 0.714371V0.72957H3.72105L3.65771 0.714371Z" fill="#2B0405"/>
<path d="M3.11914 0.729568V0.744768H3.19831L3.11914 0.729568Z" fill="#680D0F"/>
<path d="M3.19842 0.736026C2.74625 0.793715 2.29375 0.935114 1.91592 1.18595C0.428746 2.17327 0.405728 4.29895 1.74318 5.40591C2.03049 5.64374 2.40785 5.81055 2.77092 5.90813C3.0883 5.99343 3.45616 6.02193 3.78425 5.98425C4.20173 5.93633 4.63819 5.81584 4.98759 5.58449C5.67403 5.12997 6.15517 4.44202 6.23573 3.63268C6.39747 2.00782 4.93018 0.515083 3.19842 0.736026Z" fill="url(#paint0_linear_2_665)"/>
<path d="M3.78418 0.729568V0.744768H3.87918L3.78418 0.729568Z" fill="#360607"/>
<path d="M3.02393 0.744781V0.759981H3.07143L3.02393 0.744781Z" fill="#340507"/>
<path d="M2.9292 0.759979V0.775179H2.9767L2.9292 0.759979Z" fill="#250405"/>
<path d="M3.99023 0.759979V0.775179H4.0694L3.99023 0.759979Z" fill="#280405"/>
<path d="M4.08496 0.775177V0.790376H4.13246L4.08496 0.775177Z" fill="#430709"/>
<path d="M2.80273 0.790375V0.805574H2.85023L2.80273 0.790375Z" fill="#4B080A"/>
<path d="M4.14844 0.790375V0.805574H4.19594L4.14844 0.790375Z" fill="#4F090B"/>
<path d="M2.73926 0.805573V0.820772H2.78676L2.73926 0.805573Z" fill="#360607"/>
<path d="M4.21143 0.805573V0.820772H4.25893L4.21143 0.805573Z" fill="#430709"/>
<path d="M2.69189 0.82077V0.83597H2.73939L2.69189 0.82077Z" fill="#51090B"/>
<path d="M4.2749 0.82077V0.83597H4.3224L4.2749 0.82077Z" fill="#280405"/>
<path d="M4.32227 0.835968V0.851168H4.36977L4.32227 0.835968Z" fill="#2B0405"/>
<path d="M4.37012 0.851166V0.866365H4.41762L4.37012 0.851166Z" fill="#2F0506"/>
<path d="M7.37842 0.957565V0.972765H11.5584L11.1784 0.957565H10.3234H7.37842Z" fill="#06FF2D"/>
<path d="M11.5581 0.957565V0.972765H11.6214L11.5581 0.957565Z" fill="#3FA750"/>
<path d="M13.3794 0.957565V0.972765H17.5594L17.1794 0.957565H16.3244H13.3794Z" fill="#06FF2D"/>
<path d="M17.5591 0.957565V0.972765H17.6224L17.5591 0.957565Z" fill="#113A17"/>
<path d="M7.33069 0.983833C6.89693 1.10369 6.99819 1.65046 6.99819 1.97593V4.52944C6.99819 4.82439 6.90205 5.30767 7.09024 5.56042C7.32096 5.87031 7.8564 5.7606 8.20152 5.7606H10.5607C10.9005 5.7606 11.3448 5.83257 11.669 5.72961C12.0962 5.59395 12.0015 5.08067 12.0015 4.74224V2.15832C12.0015 1.86894 12.1004 1.38397 11.8989 1.14641C11.6601 0.865026 11.1217 0.972761 10.7824 0.972761H8.42319H7.69485C7.57984 0.972761 7.44192 0.953098 7.33069 0.983833Z" fill="url(#paint1_linear_2_665)"/>
<path d="M11.6216 0.972763V0.987963H11.6691L11.6216 0.972763Z" fill="#032E0B"/>
<path d="M13.3317 0.984929C12.8936 1.12152 12.9992 1.65039 12.9992 1.99113V4.55985C12.9992 4.8748 12.9067 5.34441 13.1222 5.60931C13.3344 5.87024 13.9162 5.76061 14.2184 5.76061H16.5776C16.9075 5.76061 17.3577 5.83644 17.6701 5.72884C18.0947 5.58258 17.9867 5.08633 17.9867 4.74224V2.15833V1.53515C17.9867 1.40503 17.9964 1.26962 17.9126 1.15774C17.6924 0.863812 17.1438 0.972767 16.8151 0.972767H14.4084H13.6801C13.5712 0.972767 13.4362 0.952379 13.3317 0.984929Z" fill="url(#paint2_linear_2_665)"/>
<path d="M17.6226 0.972763V0.987963H17.6701L17.6226 0.972763Z" fill="#15471D"/>
<path d="M17.9868 1.32236V5.33502H18.0018V2.50792V1.68715L17.9868 1.32236Z" fill="#278537"/>
<path d="M6.12744 2.56871V2.61431H6.14244L6.12744 2.56871Z" fill="#2E0506"/>
<path d="M6.14355 2.62952V2.67512H6.15855L6.14355 2.62952Z" fill="#4B080A"/>
<path d="M0.807617 2.75111V2.79671H0.822617L0.807617 2.75111Z" fill="#3B0608"/>
<path d="M0.791504 2.8119V2.8575H0.806504L0.791504 2.8119Z" fill="#260405"/>
<path d="M6.19092 2.8119V2.8575H6.20592L6.19092 2.8119Z" fill="#3A0608"/>
<path d="M6.20654 2.88791V2.93351H6.22154L6.20654 2.88791Z" fill="#230304"/>
<path d="M0.775879 2.90311V2.9639H0.790879L0.775879 2.90311Z" fill="#7E0E11"/>
<path d="M6.22266 2.9791V3.03989H6.23766L6.22266 2.9791Z" fill="#470809"/>
<path d="M0.759766 2.99429V3.07029H0.774766L0.759766 2.99429Z" fill="#680C0E"/>
<path d="M6.23828 3.11589V3.51108H6.25328L6.23828 3.11589Z" fill="#8A1114"/>
<path d="M0.744141 3.13109V3.51108H0.759141L0.744141 3.13109Z" fill="#660D0F"/>
<path d="M0.744141 3.51108V3.58708H0.759141L0.744141 3.51108Z" fill="#0D0101"/>
<path d="M6.23828 3.51108V3.60227H6.25328L6.23828 3.51108Z" fill="#200304"/>
<path d="M0.759766 3.63268V3.72387H0.774766L0.759766 3.63268Z" fill="#370607"/>
<path d="M6.22266 3.66309V3.73908H6.23766L6.22266 3.66309Z" fill="#150202"/>
<path d="M6.20654 3.76947V3.83027H6.22154L6.20654 3.76947Z" fill="#050000"/>
<path d="M0.791504 3.83028V3.87587H0.806504L0.791504 3.83028Z" fill="#730E10"/>
<path d="M0.807617 3.92146V3.96706H0.822617L0.807617 3.92146Z" fill="#3F0708"/>
<path d="M6.1748 3.92146V3.98226H6.1898L6.1748 3.92146Z" fill="#010000"/>
<path d="M0.823242 3.98227V4.02787H0.838242L0.823242 3.98227Z" fill="#4F0A0C"/>
<path d="M0.839355 4.04306V4.08866H0.854355L0.839355 4.04306Z" fill="#3F0708"/>
<path d="M6.14355 4.04306V4.08866H6.15855L6.14355 4.04306Z" fill="#51090B"/>
<path d="M6.12744 4.10387V4.14947H6.14244L6.12744 4.10387Z" fill="#350607"/>
<path d="M0.870605 4.14946V4.19506H0.885605L0.870605 4.14946Z" fill="#2D0506"/>
<path d="M6.11182 4.14946V4.19506H6.12682L6.11182 4.14946Z" fill="#3F0708"/>
<path d="M6.0957 4.19505V4.24065H6.1107L6.0957 4.19505Z" fill="#3B0608"/>
<path d="M6.08008 4.24066V4.28626H6.09508L6.08008 4.24066Z" fill="#390607"/>
<path d="M11.9858 5.33502V5.39582H12.0008L11.9858 5.33502Z" fill="#1A852B"/>
<path d="M12.999 5.33502V5.39582H13.014L12.999 5.33502Z" fill="#184E21"/>
<path d="M17.9868 5.33502V5.39582H18.0018L17.9868 5.33502Z" fill="#3FA750"/>
<path d="M6.99854 5.35022V5.39582H7.01354L6.99854 5.35022Z" fill="#0D2D12"/>
<path d="M13.0151 5.41103V5.45662H13.0301L13.0151 5.41103Z" fill="#0C2910"/>
<path d="M11.6377 5.73021V5.74541H11.6852L11.6377 5.73021Z" fill="#0A250F"/>
<path d="M11.5742 5.74541V5.76061H11.6217L11.5742 5.74541Z" fill="#0F3415"/>
<path d="M17.5752 5.74541V5.76061H17.6227L17.5752 5.74541Z" fill="#0E3314"/>
<path d="M4.41748 5.83661V5.85181H4.46498L4.41748 5.83661Z" fill="#3A0608"/>
<path d="M4.32227 5.867V5.8822H4.36977L4.32227 5.867Z" fill="#410709"/>
<path d="M4.2749 5.8822V5.8974H4.3224L4.2749 5.8822Z" fill="#3D0708"/>
<path d="M4.08496 5.9278V5.94299H4.14829L4.08496 5.9278Z" fill="#580A0C"/>
<path d="M2.9292 5.94301V5.95821H2.9767L2.9292 5.94301Z" fill="#3B0608"/>
<path d="M4.00586 5.94301V5.95821H4.06919L4.00586 5.94301Z" fill="#630B0F"/>
<path d="M3.0083 5.95821V5.97341H3.0558L3.0083 5.95821Z" fill="#260405"/>
<path d="M3.91064 5.95821V5.97341H3.95814L3.91064 5.95821Z" fill="#730E10"/>
<path d="M3.10352 5.9734V5.9886H3.18268L3.10352 5.9734Z" fill="#640B0E"/>
<path d="M3.7998 5.9734V5.9886H3.8948L3.7998 5.9734Z" fill="#180203"/>
<path d="M3.24561 5.9886V6.0038H3.70477L3.24561 5.9886Z" fill="#961216"/>
<path d="M3.70508 5.9886V6.0038H3.75258L3.70508 5.9886Z" fill="#130102"/>
<path d="M1.37744 6.71817V6.73337H5.55744L5.17744 6.71817H4.32244H1.37744Z" fill="#06FF2D"/>
<path d="M5.55762 6.71817V6.73337H5.62095L5.55762 6.71817Z" fill="#14431C"/>
<path d="M7.37842 6.71817V6.73337H11.5584L11.1784 6.71817H10.3234H7.37842Z" fill="#06FF2D"/>
<path d="M11.5581 6.71817V6.73337H11.6214L11.5581 6.71817Z" fill="#14411A"/>
<path d="M1.32979 6.74443C0.903536 6.86223 1.01313 7.40073 1.01313 7.72134V10.3204V10.9588C1.01313 11.0813 1.00714 11.2167 1.08752 11.321C1.3241 11.6281 1.85335 11.5212 2.20063 11.5212H4.54396C4.89101 11.5212 5.3355 11.5917 5.66813 11.4901C6.0929 11.3603 6.00063 10.8512 6.00063 10.518V7.91893C6.00063 7.64256 6.10088 7.14628 5.90936 6.91874C5.66235 6.62525 5.13377 6.73337 4.78146 6.73337H2.42229H1.69396C1.57895 6.73337 1.44102 6.7137 1.32979 6.74443Z" fill="url(#paint3_linear_2_665)"/>
<path d="M7.33105 6.74554C6.89674 6.88093 6.99855 7.39832 6.99855 7.73654V10.2901C6.99855 10.5842 6.90274 11.0687 7.0906 11.321C7.31943 11.6284 7.84437 11.5212 8.18605 11.5212H10.561C10.8954 11.5212 11.3528 11.5985 11.6694 11.4894C12.0948 11.343 12.0019 10.848 12.0019 10.5029V7.91894C12.0019 7.6296 12.1008 7.14452 11.8992 6.90702C11.6617 6.62719 11.1355 6.73338 10.7985 6.73338H8.40772H7.67938C7.57051 6.73338 7.43545 6.71299 7.33105 6.74554Z" fill="url(#paint4_linear_2_665)"/>
<path d="M0.997559 7.08296V11.1108H1.01256V8.26852V7.44775L0.997559 7.08296Z" fill="#278537"/>
<path d="M5.98486 11.0956V11.1564H5.99986L5.98486 11.0956Z" fill="#164C20"/>
<path d="M6.99854 11.0956V11.1564H7.01354L6.99854 11.0956Z" fill="#14451C"/>
<path d="M11.9858 11.0956V11.1564H12.0008L11.9858 11.0956Z" fill="#13441B"/>
<path d="M0.997559 11.1108V11.1564H1.01256L0.997559 11.1108Z" fill="#0A240E"/>
<path d="M1.01318 11.1564V11.202H1.02818L1.01318 11.1564Z" fill="#174C1E"/>
<path d="M5.96924 11.1716V11.2172H5.98424L5.96924 11.1716Z" fill="#0A250F"/>
<path d="M5.55762 11.506V11.5212H5.62095L5.55762 11.506Z" fill="#16491E"/>
<path d="M11.5742 11.506V11.5212H11.6217L11.5742 11.506Z" fill="#0D2E12"/>
<path d="M1.37768 12.4872C0.915853 12.5959 1.01351 13.1073 1.01351 13.4515V16.0659V16.7194C1.01351 16.8419 1.00752 16.9774 1.0879 17.0816C1.31665 17.3785 1.86237 17.2666 2.20101 17.2666H4.56018H5.28851C5.40428 17.2666 5.54047 17.2852 5.65268 17.2546C6.0969 17.1336 6.00101 16.6029 6.00101 16.2634V13.6795C6.00101 13.3757 6.09655 12.9033 5.89512 12.6466C5.67996 12.3723 5.09075 12.4788 4.78184 12.4788H2.47018C2.13323 12.4788 1.70456 12.4102 1.37768 12.4872Z" fill="url(#paint5_linear_2_665)"/>
<path d="M5.55762 12.4788V12.494H5.62095L5.55762 12.4788Z" fill="#16491F"/>
<path d="M7.37855 12.4872C6.91284 12.5968 6.99855 13.1035 6.99855 13.4515V16.0507C6.99855 16.3448 6.90274 16.8293 7.0906 17.0816C7.3126 17.3798 7.86838 17.2666 8.20188 17.2666H10.561H11.2894C11.4052 17.2666 11.5413 17.2852 11.6535 17.2546C12.0931 17.1348 12.0019 16.6149 12.0019 16.2786V13.7099C12.0019 13.4142 12.0997 12.9302 11.9099 12.6807C11.6778 12.3757 11.1413 12.4788 10.7985 12.4788H8.47105C8.1341 12.4788 7.70543 12.4102 7.37855 12.4872Z" fill="url(#paint6_linear_2_665)"/>
<path d="M11.5581 12.4788V12.494H11.6214L11.5581 12.4788Z" fill="#16491E"/>
<path d="M13.3791 12.4884C12.9107 12.6107 12.9991 13.0875 12.9991 13.4515V16.0507C12.9991 16.3394 12.9008 16.8365 13.0904 17.0816C13.3196 17.3782 13.8638 17.2666 14.2024 17.2666H16.5616H17.2741C17.3951 17.2666 17.5368 17.2859 17.6541 17.2546C18.0935 17.1379 17.9866 16.6118 17.9866 16.2786V13.6947V13.0564C17.9866 12.9249 17.9955 12.7934 17.9104 12.6807C17.6798 12.3754 17.1408 12.4788 16.7991 12.4788H14.4558H13.7433C13.6283 12.4788 13.4907 12.4593 13.3791 12.4884Z" fill="url(#paint7_linear_2_665)"/>
<path d="M17.5591 12.4788V12.494H17.6224L17.5591 12.4788Z" fill="#14471D"/>
<path d="M5.63672 12.494V12.5092H5.68422L5.63672 12.494Z" fill="#0A240E"/>
<path d="M0.997559 12.8436V16.8714H1.01339V14.0291V13.2084L0.997559 12.8436ZM17.9867 12.8436V16.8562H18.0026V14.0291V13.2084L17.9867 12.8436Z" fill="#278537"/>
<path d="M5.98486 16.8562V16.917H5.99986L5.98486 16.8562Z" fill="#154C1F"/>
<path d="M6.99854 16.8562V16.917H7.01354L6.99854 16.8562Z" fill="#1A852B"/>
<path d="M11.9858 16.8562V16.917H12.0008L11.9858 16.8562Z" fill="#13421B"/>
<path d="M12.999 16.8562V16.917H13.014L12.999 16.8562Z" fill="#174C1F"/>
<path d="M17.9868 16.8562V16.917H18.0018L17.9868 16.8562Z" fill="#113A17"/>
<path d="M0.997559 16.8714V16.917H1.01256L0.997559 16.8714Z" fill="#0A220E"/>
<path d="M1.01318 16.917V16.9626H1.02818L1.01318 16.917Z" fill="#16491F"/>
<path d="M17.9707 16.917V16.9626H17.9857L17.9707 16.917Z" fill="#15471D"/>
<path d="M5.96924 16.9322V16.9778H5.98424L5.96924 16.9322Z" fill="#0A220E"/>
<path d="M13.0151 16.9322V16.9778H13.0301L13.0151 16.9322Z" fill="#0A250F"/>
<path d="M1.37744 17.2666V17.2818H5.57327L5.19327 17.2666H4.33827H1.37744Z" fill="#06FF2D"/>
<path d="M5.57324 17.2666V17.2818H5.62074L5.57324 17.2666Z" fill="#0C2910"/>
<path d="M7.37842 17.2666V17.2818H11.5584L11.1784 17.2666H10.3234H7.37842Z" fill="#06FF2D"/>
<path d="M11.5581 17.2666V17.2818H11.6214L11.5581 17.2666Z" fill="#12401B"/>
<path d="M13.3794 17.2666V17.2818H17.5594L17.1794 17.2666H16.3244H13.3794Z" fill="#06FF2D"/>
<path d="M17.5591 17.2666V17.2818H17.6224L17.5591 17.2666Z" fill="#123F19"/>
<path d="M1.37745 18.249C0.916864 18.3692 1.01328 18.8588 1.01328 19.2122V21.8265V22.4649C1.01328 22.5956 1.00412 22.7307 1.08762 22.8435C1.30703 23.1397 1.87107 23.0272 2.20078 23.0272H4.57578H5.28828C5.41119 23.0272 5.54956 23.0441 5.66828 23.0087C6.09249 22.8819 6.00078 22.3696 6.00078 22.0393V19.4402V18.817C6.00078 18.6899 6.00733 18.5595 5.91989 18.454C5.6602 18.1404 5.16939 18.2394 4.79745 18.2394H2.45411H1.74161C1.6266 18.2394 1.48904 18.2199 1.37745 18.249Z" fill="url(#paint8_linear_2_665)"/>
<path d="M7.37855 18.2485C6.91289 18.3558 6.99855 18.8645 6.99855 19.2122V21.8113C6.99855 22.1054 6.90274 22.5899 7.0906 22.8423C7.3127 23.1406 7.86766 23.0272 8.20188 23.0272H10.5452C10.8869 23.0272 11.3231 23.0967 11.6535 23.0132C12.0988 22.9006 12.0019 22.3592 12.0019 22.0241V19.4402C12.0019 19.133 12.0967 18.666 11.8936 18.4072C11.6773 18.1316 11.094 18.2394 10.7827 18.2394H8.47105C8.13252 18.2394 7.70741 18.1727 7.37855 18.2485Z" fill="url(#paint9_linear_2_665)"/>
<path d="M5.63672 18.2546V18.2698H5.68422L5.63672 18.2546Z" fill="#0C2A11"/>
<path d="M11.6377 18.2546V18.2698H11.6852L11.6377 18.2546Z" fill="#0B270F"/>
<path d="M0.997559 18.6042V22.6169H1.01256V19.7897V18.969L0.997559 18.6042Z" fill="url(#paint10_linear_2_665)"/>
<path d="M0.997559 22.6169V22.6776H1.01256L0.997559 22.6169Z" fill="#113B18"/>
<path d="M5.98486 22.6169V22.6776H5.99986L5.98486 22.6169Z" fill="#032E0B"/>
<path d="M6.99854 22.6169V22.6776H7.01354L6.99854 22.6169Z" fill="#13441B"/>
<path d="M11.9858 22.6169V22.6776H12.0008L11.9858 22.6169Z" fill="#14411A"/>
<path d="M5.62061 23.012V23.0272H5.66811L5.62061 23.012Z" fill="#032E0B"/>
<path d="M11.6216 23.012V23.0272H11.6691L11.6216 23.012Z" fill="#16491E"/>
<path d="M1.37744 23.0272V23.0424H1.44077L1.37744 23.0272Z" fill="#195121"/>
<path d="M1.44092 23.0272V23.0424H5.55759L5.17759 23.0272H4.33842H1.44092Z" fill="#06FF2D"/>
<path d="M5.55762 23.0272V23.0424H5.62095L5.55762 23.0272Z" fill="#3FA750"/>
<path d="M7.37842 23.0272V23.0424H11.5584L11.1784 23.0272H10.3234H7.37842Z" fill="#06FF2D"/>
<path d="M11.5581 23.0272V23.0424H11.6214L11.5581 23.0272Z" fill="#113A17"/>
</g>
</g>
<defs>
<linearGradient id="paint0_linear_2_665" x1="3.50849" y1="0.714218" x2="3.50849" y2="6.00057" gradientUnits="userSpaceOnUse">
<stop offset="0.185" stop-color="#CD191E"/>
<stop offset="0.675" stop-color="#DB3C41"/>
<stop offset="1" stop-color="#670D0F"/>
</linearGradient>
<linearGradient id="paint1_linear_2_665" x1="9.49971" y1="0.952499" x2="9.49971" y2="5.78506" gradientUnits="userSpaceOnUse">
<stop offset="0.27" stop-color="#0DB62A"/>
<stop offset="0.77" stop-color="#52C766"/>
<stop offset="1" stop-color="#1D872F"/>
</linearGradient>
<linearGradient id="paint2_linear_2_665" x1="15.4893" y1="0.953018" x2="15.4893" y2="5.78656" gradientUnits="userSpaceOnUse">
<stop offset="0.27" stop-color="#0DB62A"/>
<stop offset="0.77" stop-color="#52C766"/>
<stop offset="1" stop-color="#1D872F"/>
</linearGradient>
<linearGradient id="paint3_linear_2_665" x1="3.51367" y1="6.71391" x2="3.51367" y2="11.545" gradientUnits="userSpaceOnUse">
<stop offset="0.27" stop-color="#0DB62A"/>
<stop offset="0.77" stop-color="#52C766"/>
<stop offset="1" stop-color="#1D872F"/>
</linearGradient>
<linearGradient id="paint4_linear_2_665" x1="9.50014" y1="6.71361" x2="9.50014" y2="11.5478" gradientUnits="userSpaceOnUse">
<stop offset="0.27" stop-color="#0DB62A"/>
<stop offset="0.77" stop-color="#52C766"/>
<stop offset="1" stop-color="#1D872F"/>
</linearGradient>
<linearGradient id="paint5_linear_2_665" x1="3.51427" y1="12.4507" x2="3.51427" y2="17.2873" gradientUnits="userSpaceOnUse">
<stop offset="0.27" stop-color="#0DB62A"/>
<stop offset="0.77" stop-color="#52C766"/>
<stop offset="1" stop-color="#1D872F"/>
</linearGradient>
<linearGradient id="paint6_linear_2_665" x1="9.5006" y1="12.4507" x2="9.5006" y2="17.2877" gradientUnits="userSpaceOnUse">
<stop offset="0.27" stop-color="#0DB62A"/>
<stop offset="0.77" stop-color="#52C766"/>
<stop offset="1" stop-color="#1D872F"/>
</linearGradient>
<linearGradient id="paint7_linear_2_665" x1="15.4858" y1="12.4619" x2="15.4858" y2="17.2872" gradientUnits="userSpaceOnUse">
<stop offset="0.27" stop-color="#0DB62A"/>
<stop offset="0.77" stop-color="#52C766"/>
<stop offset="1" stop-color="#1D872F"/>
</linearGradient>
<linearGradient id="paint8_linear_2_665" x1="3.50701" y1="18.2246" x2="3.50701" y2="23.0482" gradientUnits="userSpaceOnUse">
<stop offset="0.27" stop-color="#0DB62A"/>
<stop offset="0.77" stop-color="#52C766"/>
<stop offset="1" stop-color="#1D872F"/>
</linearGradient>
<linearGradient id="paint9_linear_2_665" x1="9.49906" y1="18.2123" x2="9.49906" y2="23.0543" gradientUnits="userSpaceOnUse">
<stop offset="0.27" stop-color="#0DB62A"/>
<stop offset="0.77" stop-color="#52C766"/>
<stop offset="1" stop-color="#1D872F"/>
</linearGradient>
<linearGradient id="paint10_linear_2_665" x1="1.00506" y1="18.6042" x2="1.00506" y2="22.6169" gradientUnits="userSpaceOnUse">
<stop offset="0.27" stop-color="#0DB62A"/>
<stop offset="0.77" stop-color="#52C766"/>
<stop offset="1" stop-color="#1D872F"/>
</linearGradient>
<clipPath id="clip0_2_665">
<rect width="177" height="24" fill="white"/>
</clipPath>
<clipPath id="clip1_2_665">
<rect width="19" height="24" fill="white"/>
</clipPath>
</defs>
</svg>
